<?xml version="1.0" encoding="iso-8859-1"?>
<!-- Generator: Adobe Illustrator 19.0.0, SVG Export Plug-In . SVG Version: 6.00 Build 0)  -->
<svg version="1.1" id="Capa_1" xmlns="http://www.w3.org/2000/svg" xmlns:xlink="http://www.w3.org/1999/xlink" x="0px" y="0px"
	 viewBox="0 0 480 480" style="enable-background:new 0 0 480 480;" xml:space="preserve">
<path style="fill:#F5C850;" d="M377.776,158.792l-56.568-56.568c-6.248-6.248-6.248-16.376,0-22.624l11.312-11.312
	c6.248-6.248,16.376-6.248,22.624,0l56.568,56.568c6.248,6.248,6.248,16.376,0,22.624L400.4,158.792
	C394.152,165.04,384.024,165.04,377.776,158.792z"/>
<path style="fill:#F2BA24;" d="M406.056,119.192L360.8,73.936l56.568-56.568c12.496-12.496,32.76-12.496,45.256,0l0,0
	c12.496,12.496,12.496,32.76,0,45.256L406.056,119.192z"/>
<path style="fill:#BF26B8;" d="M275.952,170.104l-56.568,56.568l5.656,5.656l-28.288,28.288c-6.248,6.248-6.248,16.376,0,22.624l0,0
	c6.248,6.248,16.376,6.248,22.624,0l28.288-28.288l5.656,5.656l56.568-56.568L275.952,170.104z"/>
<rect x="297.199" y="118.782" transform="matrix(-0.7071 -0.7071 0.7071 -0.7071 436.045 498.1788)" style="fill:#F7F7F7;" width="48" height="79.999"/>
<path style="fill:#E0E0E0;" d="M264,440H24c-8.84,0-16-7.16-16-16v-16h272v16C280,432.84,272.84,440,264,440z"/>
<g>
	<path style="fill:#BF26B8;" d="M248,472H40c-8.84,0-16-7.16-16-16v-16h240v16C264,464.84,256.84,472,248,472z"/>
	<circle style="fill:#BF26B8;" cx="176" cy="352" r="24"/>
</g>
<circle style="fill:#FDC567;" cx="72" cy="232" r="16"/>
<path style="fill:#F2BA24;" d="M456,248h-80c-8.84,0-16-7.16-16-16v-32h112v32C472,240.84,464.84,248,456,248z"/>
<rect x="376" y="248" style="fill:#E0E0E0;" width="80" height="48"/>
<path style="fill:#BF26B8;" d="M456,296h-80v136c0,22.088,17.912,40,40,40l0,0c22.088,0,40-17.912,40-40V296z"/>
<path d="M372.12,164.456L372.12,164.456c4.68,4.68,10.832,7.016,16.968,7.016c6.152,0,12.296-2.336,16.968-7.016l11.32-11.32
	c9.352-9.352,9.352-24.568,0-33.936l0,0l50.904-50.912C475.832,60.736,480,50.688,480,40s-4.168-20.736-11.72-28.28
	C460.736,4.168,450.688,0,440,0s-20.736,4.168-28.28,11.72l-50.912,50.904l-0.008-0.008c-9.368-9.352-24.6-9.344-33.936,0.008
	l-11.32,11.32c-9.352,9.352-9.352,24.568,0,33.936l5.664,5.664l-50.912,50.912l-56.568,56.568c-3.128,3.128-3.128,8.184,0,11.312
	l-22.624,22.624c-4.528,4.528-7.032,10.56-7.032,16.968c0,6.416,2.496,12.448,7.024,16.968c4.528,4.528,10.56,7.032,16.976,7.032
	c6.408,0,12.44-2.496,16.968-7.032l22.624-22.624c3.128,3.128,8.184,3.128,11.312,0l56.568-56.568l50.912-50.912L372.12,164.456z
	 M423.032,23.032c9.064-9.064,24.872-9.064,33.936,0C461.504,27.56,464,33.584,464,40s-2.496,12.44-7.032,16.968l-50.904,50.912
	L372.12,73.936L423.032,23.032z M326.856,85.256l11.32-11.32c3.128-3.112,8.184-3.112,11.312,0l56.56,56.568
	c3.128,3.12,3.128,8.192,0.008,11.312l-11.32,11.32c-3.112,3.104-8.184,3.128-11.312-0.008l-11.312-11.312l-33.936-33.936
	l-11.312-11.312C323.744,93.456,323.744,88.376,326.856,85.256z M253.32,249.304c-3.128-3.128-8.184-3.128-11.312,0l-28.28,28.28
	c-3.032,3.024-8.288,3.04-11.312-0.008c-1.512-1.504-2.344-3.504-2.344-5.648c0-2.136,0.832-4.144,2.344-5.656l28.28-28.28
	c3.128-3.128,3.128-8.184,0-11.312l45.256-45.256l22.624,22.624L253.32,249.304z M309.888,192.736l-22.624-22.624l45.256-45.256
	l22.624,22.624L309.888,192.736z"/>
<path d="M280,400H8c-4.424,0-8,3.576-8,8v16c0,10.416,6.712,19.216,16,22.528V456c0,13.232,10.768,24,24,24h208
	c13.232,0,24-10.768,24-24v-9.472c9.288-3.312,16-12.112,16-22.528v-16C288,403.576,284.424,400,280,400z M256,456
	c0,4.416-3.584,8-8,8H40c-4.416,0-8-3.584-8-8v-8h224V456z M272,424c0,4.416-3.584,8-8,8H24c-4.416,0-8-3.584-8-8v-8h256V424z"/>
<path d="M176,384c17.648,0,32-14.352,32-32s-14.352-32-32-32s-32,14.352-32,32S158.352,384,176,384z M176,336
	c8.824,0,16,7.176,16,16s-7.176,16-16,16s-16-7.176-16-16S167.176,336,176,336z"/>
<path d="M72,256c13.232,0,24-10.768,24-24s-10.768-24-24-24s-24,10.768-24,24S58.768,256,72,256z M72,224c4.416,0,8,3.584,8,8
	s-3.584,8-8,8s-8-3.584-8-8S67.584,224,72,224z"/>
<polygon points="208,72 224,72 224,56 240,56 240,40 224,40 224,24 208,24 208,40 192,40 192,56 208,56 "/>
<rect x="80" y="80" width="16" height="16"/>
<rect x="160" y="144" width="16" height="16"/>
<path d="M472,192H360c-4.424,0-8,3.576-8,8v32c0,10.416,6.712,19.216,16,22.528V296v40h-24c-13.232,0-24,10.768-24,24v120h16V360
	c0-4.416,3.584-8,8-8h24v80c0,26.472,21.528,48,48,48s48-21.528,48-48V296v-41.472c9.288-3.312,16-12.112,16-22.528v-32
	C480,195.576,476.424,192,472,192z M448,288h-64v-32h64V288z M448,432c0,17.648-14.352,32-32,32s-32-14.352-32-32v-80h32v-16h-32
	v-32h64V432z M464,232c0,4.416-3.584,8-8,8h-80c-4.416,0-8-3.584-8-8v-24h96V232z"/>
<g>
</g>
<g>
</g>
<g>
</g>
<g>
</g>
<g>
</g>
<g>
</g>
<g>
</g>
<g>
</g>
<g>
</g>
<g>
</g>
<g>
</g>
<g>
</g>
<g>
</g>
<g>
</g>
<g>
</g>
</svg>
